<mxfile host="app.diagrams.net" modified="2024-03-27T00:59:57.206Z" agent="Mozilla/5.0 (Windows NT 10.0; Win64; x64) AppleWebKit/537.36 (KHTML, like Gecko) Chrome/123.0.0.0 Safari/537.36" etag="MXmoTGklvoeTHlNhb6kD" version="24.2.0" type="google">
  <diagram name="PÃ¡gina-1" id="fjR3FUGWn9-wHY6r2zzr">
    <mxGraphModel dx="1434" dy="1915" grid="1" gridSize="10" guides="1" tooltips="1" connect="1" arrows="1" fold="1" page="1" pageScale="1" pageWidth="827" pageHeight="1169" math="0" shadow="0">
      <root>
        <mxCell id="0" />
        <mxCell id="1" parent="0" />
        <mxCell id="J5hOATVG0DoShGo7HXTy-8" style="rounded=0;orthogonalLoop=1;jettySize=auto;html=1;entryX=0;entryY=0.5;entryDx=0;entryDy=0;endArrow=none;endFill=0;exitX=0.5;exitY=0.5;exitDx=0;exitDy=0;exitPerimeter=0;" parent="1" source="J5hOATVG0DoShGo7HXTy-1" target="J5hOATVG0DoShGo7HXTy-3" edge="1">
          <mxGeometry relative="1" as="geometry" />
        </mxCell>
        <mxCell id="J5hOATVG0DoShGo7HXTy-22" style="rounded=0;orthogonalLoop=1;jettySize=auto;html=1;exitX=0.5;exitY=0.5;exitDx=0;exitDy=0;exitPerimeter=0;entryX=0;entryY=0.5;entryDx=0;entryDy=0;endArrow=none;endFill=0;" parent="1" source="J5hOATVG0DoShGo7HXTy-1" target="J5hOATVG0DoShGo7HXTy-6" edge="1">
          <mxGeometry relative="1" as="geometry" />
        </mxCell>
        <mxCell id="J5hOATVG0DoShGo7HXTy-36" style="rounded=0;orthogonalLoop=1;jettySize=auto;html=1;exitX=0.5;exitY=0.5;exitDx=0;exitDy=0;exitPerimeter=0;entryX=0;entryY=0.5;entryDx=0;entryDy=0;endArrow=none;endFill=0;" parent="1" source="J5hOATVG0DoShGo7HXTy-1" target="J5hOATVG0DoShGo7HXTy-7" edge="1">
          <mxGeometry relative="1" as="geometry" />
        </mxCell>
        <mxCell id="J5hOATVG0DoShGo7HXTy-1" value="&lt;b&gt;Cliente Jugador&lt;/b&gt;" style="shape=umlActor;verticalLabelPosition=bottom;verticalAlign=top;html=1;outlineConnect=0;" parent="1" vertex="1">
          <mxGeometry x="200" y="215" width="30" height="60" as="geometry" />
        </mxCell>
        <mxCell id="J5hOATVG0DoShGo7HXTy-2" value="" style="swimlane;startSize=10;" parent="1" vertex="1">
          <mxGeometry x="280" y="-60" width="910" height="690" as="geometry">
            <mxRectangle x="270" y="30" width="50" height="40" as="alternateBounds" />
          </mxGeometry>
        </mxCell>
        <mxCell id="J5hOATVG0DoShGo7HXTy-10" value="" style="edgeStyle=orthogonalEdgeStyle;rounded=0;orthogonalLoop=1;jettySize=auto;html=1;endArrow=none;endFill=0;" parent="J5hOATVG0DoShGo7HXTy-2" source="J5hOATVG0DoShGo7HXTy-3" target="J5hOATVG0DoShGo7HXTy-9" edge="1">
          <mxGeometry relative="1" as="geometry" />
        </mxCell>
        <mxCell id="J5hOATVG0DoShGo7HXTy-33" style="rounded=0;orthogonalLoop=1;jettySize=auto;html=1;exitX=1;exitY=0.5;exitDx=0;exitDy=0;entryX=0;entryY=0.5;entryDx=0;entryDy=0;endArrow=none;endFill=0;" parent="J5hOATVG0DoShGo7HXTy-2" source="J5hOATVG0DoShGo7HXTy-6" target="J5hOATVG0DoShGo7HXTy-29" edge="1">
          <mxGeometry relative="1" as="geometry" />
        </mxCell>
        <mxCell id="J5hOATVG0DoShGo7HXTy-6" value="Ajustes" style="ellipse;whiteSpace=wrap;html=1;" parent="J5hOATVG0DoShGo7HXTy-2" vertex="1">
          <mxGeometry x="155" y="390" width="90" height="50" as="geometry" />
        </mxCell>
        <mxCell id="J5hOATVG0DoShGo7HXTy-7" value="Salir del juego" style="ellipse;whiteSpace=wrap;html=1;" parent="J5hOATVG0DoShGo7HXTy-2" vertex="1">
          <mxGeometry x="50" y="490" width="90" height="50" as="geometry" />
        </mxCell>
        <mxCell id="J5hOATVG0DoShGo7HXTy-17" style="edgeStyle=orthogonalEdgeStyle;rounded=0;orthogonalLoop=1;jettySize=auto;html=1;exitX=0.5;exitY=0;exitDx=0;exitDy=0;entryX=0;entryY=0.5;entryDx=0;entryDy=0;endArrow=none;endFill=0;" parent="J5hOATVG0DoShGo7HXTy-2" source="J5hOATVG0DoShGo7HXTy-9" target="J5hOATVG0DoShGo7HXTy-13" edge="1">
          <mxGeometry relative="1" as="geometry" />
        </mxCell>
        <mxCell id="J5hOATVG0DoShGo7HXTy-19" style="edgeStyle=orthogonalEdgeStyle;rounded=0;orthogonalLoop=1;jettySize=auto;html=1;exitX=0.5;exitY=1;exitDx=0;exitDy=0;entryX=0;entryY=0.5;entryDx=0;entryDy=0;endArrow=none;endFill=0;" parent="J5hOATVG0DoShGo7HXTy-2" source="J5hOATVG0DoShGo7HXTy-9" target="J5hOATVG0DoShGo7HXTy-16" edge="1">
          <mxGeometry relative="1" as="geometry" />
        </mxCell>
        <mxCell id="J5hOATVG0DoShGo7HXTy-21" style="edgeStyle=orthogonalEdgeStyle;rounded=0;orthogonalLoop=1;jettySize=auto;html=1;exitX=1;exitY=0.5;exitDx=0;exitDy=0;entryX=0;entryY=0.5;entryDx=0;entryDy=0;endArrow=none;endFill=0;" parent="J5hOATVG0DoShGo7HXTy-2" source="J5hOATVG0DoShGo7HXTy-9" target="J5hOATVG0DoShGo7HXTy-15" edge="1">
          <mxGeometry relative="1" as="geometry" />
        </mxCell>
        <mxCell id="N75neBpnT1arqXdPe1s1-4" style="rounded=0;orthogonalLoop=1;jettySize=auto;html=1;exitX=1;exitY=0.5;exitDx=0;exitDy=0;entryX=0.042;entryY=0.325;entryDx=0;entryDy=0;entryPerimeter=0;" parent="J5hOATVG0DoShGo7HXTy-2" source="J5hOATVG0DoShGo7HXTy-13" target="N75neBpnT1arqXdPe1s1-7" edge="1">
          <mxGeometry relative="1" as="geometry">
            <mxPoint x="420" y="80" as="targetPoint" />
          </mxGeometry>
        </mxCell>
        <mxCell id="J5hOATVG0DoShGo7HXTy-13" value="Facil" style="ellipse;whiteSpace=wrap;html=1;" parent="J5hOATVG0DoShGo7HXTy-2" vertex="1">
          <mxGeometry x="310" y="140" width="70" height="40" as="geometry" />
        </mxCell>
        <mxCell id="c7ixeq8fG3WXuQ8PNEhP-1" value="" style="rounded=0;orthogonalLoop=1;jettySize=auto;html=1;endArrow=none;endFill=0;entryX=1;entryY=0.5;entryDx=0;entryDy=0;exitX=0;exitY=0.5;exitDx=0;exitDy=0;" parent="J5hOATVG0DoShGo7HXTy-2" source="J5hOATVG0DoShGo7HXTy-24" target="J5hOATVG0DoShGo7HXTy-6" edge="1">
          <mxGeometry relative="1" as="geometry" />
        </mxCell>
        <mxCell id="J5hOATVG0DoShGo7HXTy-24" value="Audio&amp;nbsp;" style="ellipse;whiteSpace=wrap;html=1;" parent="J5hOATVG0DoShGo7HXTy-2" vertex="1">
          <mxGeometry x="315" y="460" width="60" height="30" as="geometry" />
        </mxCell>
        <mxCell id="J5hOATVG0DoShGo7HXTy-29" value="Controles" style="ellipse;whiteSpace=wrap;html=1;" parent="J5hOATVG0DoShGo7HXTy-2" vertex="1">
          <mxGeometry x="315" y="330" width="60" height="30" as="geometry" />
        </mxCell>
        <mxCell id="N75neBpnT1arqXdPe1s1-6" style="rounded=0;orthogonalLoop=1;jettySize=auto;html=1;exitX=1;exitY=0.5;exitDx=0;exitDy=0;entryX=0.057;entryY=0.706;entryDx=0;entryDy=0;entryPerimeter=0;" parent="J5hOATVG0DoShGo7HXTy-2" source="J5hOATVG0DoShGo7HXTy-16" target="N75neBpnT1arqXdPe1s1-7" edge="1">
          <mxGeometry relative="1" as="geometry">
            <mxPoint x="419.9999999999998" y="110" as="targetPoint" />
          </mxGeometry>
        </mxCell>
        <mxCell id="N75neBpnT1arqXdPe1s1-5" style="rounded=0;orthogonalLoop=1;jettySize=auto;html=1;exitX=1;exitY=0.5;exitDx=0;exitDy=0;entryX=0;entryY=0.5;entryDx=0;entryDy=0;" parent="J5hOATVG0DoShGo7HXTy-2" source="J5hOATVG0DoShGo7HXTy-15" target="N75neBpnT1arqXdPe1s1-7" edge="1">
          <mxGeometry relative="1" as="geometry">
            <mxPoint x="419.9999999999998" y="95.31034482758628" as="targetPoint" />
          </mxGeometry>
        </mxCell>
        <mxCell id="J5hOATVG0DoShGo7HXTy-3" value="Iniciar Partida" style="ellipse;whiteSpace=wrap;html=1;" parent="J5hOATVG0DoShGo7HXTy-2" vertex="1">
          <mxGeometry x="50" y="205" width="90" height="50" as="geometry" />
        </mxCell>
        <mxCell id="J5hOATVG0DoShGo7HXTy-9" value="Tutorial" style="ellipse;whiteSpace=wrap;html=1;" parent="J5hOATVG0DoShGo7HXTy-2" vertex="1">
          <mxGeometry x="200" y="205" width="80" height="50" as="geometry" />
        </mxCell>
        <mxCell id="J5hOATVG0DoShGo7HXTy-16" value="Dificil" style="ellipse;whiteSpace=wrap;html=1;" parent="J5hOATVG0DoShGo7HXTy-2" vertex="1">
          <mxGeometry x="310" y="275" width="70" height="40" as="geometry" />
        </mxCell>
        <mxCell id="J5hOATVG0DoShGo7HXTy-15" value="Normal" style="ellipse;whiteSpace=wrap;html=1;" parent="J5hOATVG0DoShGo7HXTy-2" vertex="1">
          <mxGeometry x="310" y="210" width="70" height="40" as="geometry" />
        </mxCell>
        <mxCell id="N75neBpnT1arqXdPe1s1-14" value="Saltar" style="ellipse;whiteSpace=wrap;html=1;" parent="J5hOATVG0DoShGo7HXTy-2" vertex="1">
          <mxGeometry x="640" y="122.5" width="70" height="26.25" as="geometry" />
        </mxCell>
        <mxCell id="N75neBpnT1arqXdPe1s1-29" style="rounded=0;orthogonalLoop=1;jettySize=auto;html=1;exitX=0.5;exitY=1;exitDx=0;exitDy=0;entryX=0;entryY=0;entryDx=0;entryDy=0;" parent="J5hOATVG0DoShGo7HXTy-2" source="N75neBpnT1arqXdPe1s1-8" target="N75neBpnT1arqXdPe1s1-7" edge="1">
          <mxGeometry relative="1" as="geometry" />
        </mxCell>
        <mxCell id="N75neBpnT1arqXdPe1s1-10" value="Mover p&lt;span style=&quot;background-color: initial;&quot;&gt;ersonaje&lt;/span&gt;&lt;div&gt;atras&lt;/div&gt;" style="ellipse;whiteSpace=wrap;html=1;" parent="J5hOATVG0DoShGo7HXTy-2" vertex="1">
          <mxGeometry x="433.5" y="50" width="113" height="42.5" as="geometry" />
        </mxCell>
        <mxCell id="N75neBpnT1arqXdPe1s1-11" value="Mover p&lt;span style=&quot;background-color: initial;&quot;&gt;ersonaje&lt;/span&gt;&lt;div&gt;derecha&lt;/div&gt;" style="ellipse;whiteSpace=wrap;html=1;" parent="J5hOATVG0DoShGo7HXTy-2" vertex="1">
          <mxGeometry x="527" y="97.5" width="113" height="42.5" as="geometry" />
        </mxCell>
        <mxCell id="N75neBpnT1arqXdPe1s1-18" value="Pausar juego" style="ellipse;whiteSpace=wrap;html=1;" parent="J5hOATVG0DoShGo7HXTy-2" vertex="1">
          <mxGeometry x="480" y="380" width="80" height="50" as="geometry" />
        </mxCell>
        <mxCell id="N75neBpnT1arqXdPe1s1-27" style="rounded=0;orthogonalLoop=1;jettySize=auto;html=1;exitX=0;exitY=1;exitDx=0;exitDy=0;entryX=0.5;entryY=0;entryDx=0;entryDy=0;" parent="J5hOATVG0DoShGo7HXTy-2" source="N75neBpnT1arqXdPe1s1-12" target="N75neBpnT1arqXdPe1s1-7" edge="1">
          <mxGeometry relative="1" as="geometry" />
        </mxCell>
        <mxCell id="N75neBpnT1arqXdPe1s1-12" value="Mover p&lt;span style=&quot;background-color: initial;&quot;&gt;ersonaje&lt;/span&gt;&lt;div&gt;izquierda&lt;/div&gt;" style="ellipse;whiteSpace=wrap;html=1;" parent="J5hOATVG0DoShGo7HXTy-2" vertex="1">
          <mxGeometry x="560" y="50" width="113" height="42.5" as="geometry" />
        </mxCell>
        <mxCell id="N75neBpnT1arqXdPe1s1-7" value="Iniciar&lt;div&gt;Modo Historia&lt;/div&gt;" style="ellipse;whiteSpace=wrap;html=1;" parent="J5hOATVG0DoShGo7HXTy-2" vertex="1">
          <mxGeometry x="460" y="190" width="120" height="67.5" as="geometry" />
        </mxCell>
        <mxCell id="N75neBpnT1arqXdPe1s1-22" style="rounded=0;orthogonalLoop=1;jettySize=auto;html=1;exitX=0;exitY=0.5;exitDx=0;exitDy=0;entryX=0.936;entryY=0.237;entryDx=0;entryDy=0;entryPerimeter=0;" parent="J5hOATVG0DoShGo7HXTy-2" source="N75neBpnT1arqXdPe1s1-16" target="N75neBpnT1arqXdPe1s1-7" edge="1">
          <mxGeometry relative="1" as="geometry" />
        </mxCell>
        <mxCell id="N75neBpnT1arqXdPe1s1-16" value="Interactuar" style="ellipse;whiteSpace=wrap;html=1;" parent="J5hOATVG0DoShGo7HXTy-2" vertex="1">
          <mxGeometry x="660" y="80" width="113" height="42.5" as="geometry" />
        </mxCell>
        <mxCell id="N75neBpnT1arqXdPe1s1-23" style="rounded=0;orthogonalLoop=1;jettySize=auto;html=1;exitX=0.5;exitY=0;exitDx=0;exitDy=0;entryX=1;entryY=0.5;entryDx=0;entryDy=0;" parent="J5hOATVG0DoShGo7HXTy-2" source="N75neBpnT1arqXdPe1s1-17" target="N75neBpnT1arqXdPe1s1-7" edge="1">
          <mxGeometry relative="1" as="geometry" />
        </mxCell>
        <mxCell id="N75neBpnT1arqXdPe1s1-17" value="Atacar" style="ellipse;whiteSpace=wrap;html=1;" parent="J5hOATVG0DoShGo7HXTy-2" vertex="1">
          <mxGeometry x="673" y="148.75" width="113" height="42.5" as="geometry" />
        </mxCell>
        <mxCell id="N75neBpnT1arqXdPe1s1-19" style="rounded=0;orthogonalLoop=1;jettySize=auto;html=1;exitX=0;exitY=0.5;exitDx=0;exitDy=0;entryX=1;entryY=0.5;entryDx=0;entryDy=0;" parent="J5hOATVG0DoShGo7HXTy-2" source="N75neBpnT1arqXdPe1s1-18" target="J5hOATVG0DoShGo7HXTy-29" edge="1">
          <mxGeometry relative="1" as="geometry" />
        </mxCell>
        <mxCell id="N75neBpnT1arqXdPe1s1-21" style="rounded=0;orthogonalLoop=1;jettySize=auto;html=1;exitX=0;exitY=0.5;exitDx=0;exitDy=0;entryX=1;entryY=0.5;entryDx=0;entryDy=0;" parent="J5hOATVG0DoShGo7HXTy-2" source="N75neBpnT1arqXdPe1s1-18" target="J5hOATVG0DoShGo7HXTy-24" edge="1">
          <mxGeometry relative="1" as="geometry" />
        </mxCell>
        <mxCell id="c7ixeq8fG3WXuQ8PNEhP-10" value="Reanudar partida" style="ellipse;whiteSpace=wrap;html=1;" parent="J5hOATVG0DoShGo7HXTy-2" vertex="1">
          <mxGeometry x="570" y="330" width="70" height="40" as="geometry" />
        </mxCell>
        <mxCell id="c7ixeq8fG3WXuQ8PNEhP-13" value="Salir al escritorio" style="ellipse;whiteSpace=wrap;html=1;" parent="J5hOATVG0DoShGo7HXTy-2" vertex="1">
          <mxGeometry x="570" y="440" width="70" height="40" as="geometry" />
        </mxCell>
        <mxCell id="c7ixeq8fG3WXuQ8PNEhP-11" value="Reiniciar nivel" style="ellipse;whiteSpace=wrap;html=1;" parent="J5hOATVG0DoShGo7HXTy-2" vertex="1">
          <mxGeometry x="590" y="385" width="70" height="40" as="geometry" />
        </mxCell>
        <mxCell id="N75neBpnT1arqXdPe1s1-24" style="rounded=0;orthogonalLoop=1;jettySize=auto;html=1;exitX=0;exitY=1;exitDx=0;exitDy=0;entryX=1.005;entryY=0.288;entryDx=0;entryDy=0;entryPerimeter=0;" parent="J5hOATVG0DoShGo7HXTy-2" source="N75neBpnT1arqXdPe1s1-14" target="N75neBpnT1arqXdPe1s1-7" edge="1">
          <mxGeometry relative="1" as="geometry" />
        </mxCell>
        <mxCell id="N75neBpnT1arqXdPe1s1-25" style="rounded=0;orthogonalLoop=1;jettySize=auto;html=1;exitX=0.5;exitY=1;exitDx=0;exitDy=0;entryX=0.689;entryY=0.042;entryDx=0;entryDy=0;entryPerimeter=0;" parent="J5hOATVG0DoShGo7HXTy-2" source="N75neBpnT1arqXdPe1s1-11" target="N75neBpnT1arqXdPe1s1-7" edge="1">
          <mxGeometry relative="1" as="geometry" />
        </mxCell>
        <mxCell id="N75neBpnT1arqXdPe1s1-28" style="rounded=0;orthogonalLoop=1;jettySize=auto;html=1;exitX=0.5;exitY=1;exitDx=0;exitDy=0;entryX=0.356;entryY=0.053;entryDx=0;entryDy=0;entryPerimeter=0;" parent="J5hOATVG0DoShGo7HXTy-2" source="N75neBpnT1arqXdPe1s1-10" target="N75neBpnT1arqXdPe1s1-7" edge="1">
          <mxGeometry relative="1" as="geometry" />
        </mxCell>
        <mxCell id="N75neBpnT1arqXdPe1s1-8" value="Mover p&lt;span style=&quot;background-color: initial;&quot;&gt;ersonaje&lt;/span&gt;&lt;div&gt;adelante&lt;/div&gt;" style="ellipse;whiteSpace=wrap;html=1;" parent="J5hOATVG0DoShGo7HXTy-2" vertex="1">
          <mxGeometry x="400" y="97.5" width="113" height="42.5" as="geometry" />
        </mxCell>
        <mxCell id="c7ixeq8fG3WXuQ8PNEhP-17" style="rounded=0;orthogonalLoop=1;jettySize=auto;html=1;exitX=1;exitY=1;exitDx=0;exitDy=0;entryX=0.057;entryY=0.21;entryDx=0;entryDy=0;entryPerimeter=0;" parent="J5hOATVG0DoShGo7HXTy-2" source="N75neBpnT1arqXdPe1s1-18" target="c7ixeq8fG3WXuQ8PNEhP-13" edge="1">
          <mxGeometry relative="1" as="geometry" />
        </mxCell>
        <mxCell id="c7ixeq8fG3WXuQ8PNEhP-15" style="rounded=0;orthogonalLoop=1;jettySize=auto;html=1;exitX=1;exitY=0;exitDx=0;exitDy=0;entryX=0;entryY=0.5;entryDx=0;entryDy=0;" parent="J5hOATVG0DoShGo7HXTy-2" source="N75neBpnT1arqXdPe1s1-18" target="c7ixeq8fG3WXuQ8PNEhP-10" edge="1">
          <mxGeometry relative="1" as="geometry" />
        </mxCell>
        <mxCell id="N75neBpnT1arqXdPe1s1-31" style="edgeStyle=orthogonalEdgeStyle;rounded=0;orthogonalLoop=1;jettySize=auto;html=1;exitX=0.5;exitY=0;exitDx=0;exitDy=0;entryX=0.5;entryY=1;entryDx=0;entryDy=0;endArrow=none;endFill=0;" parent="J5hOATVG0DoShGo7HXTy-2" source="N75neBpnT1arqXdPe1s1-18" target="N75neBpnT1arqXdPe1s1-7" edge="1">
          <mxGeometry relative="1" as="geometry" />
        </mxCell>
        <mxCell id="c7ixeq8fG3WXuQ8PNEhP-18" style="edgeStyle=orthogonalEdgeStyle;rounded=0;orthogonalLoop=1;jettySize=auto;html=1;entryX=0.5;entryY=1;entryDx=0;entryDy=0;endArrow=none;endFill=0;" parent="J5hOATVG0DoShGo7HXTy-2" source="N75neBpnT1arqXdPe1s1-18" target="N75neBpnT1arqXdPe1s1-7" edge="1">
          <mxGeometry relative="1" as="geometry" />
        </mxCell>
        <mxCell id="c7ixeq8fG3WXuQ8PNEhP-16" style="rounded=0;orthogonalLoop=1;jettySize=auto;html=1;exitX=1;exitY=0.5;exitDx=0;exitDy=0;entryX=0;entryY=0.5;entryDx=0;entryDy=0;" parent="J5hOATVG0DoShGo7HXTy-2" source="N75neBpnT1arqXdPe1s1-18" target="c7ixeq8fG3WXuQ8PNEhP-11" edge="1">
          <mxGeometry relative="1" as="geometry" />
        </mxCell>
        <mxCell id="J5hOATVG0DoShGo7HXTy-4" value="MENU DEL JUEGO" style="text;html=1;align=center;verticalAlign=middle;resizable=0;points=[];autosize=1;strokeColor=none;fillColor=none;" parent="1" vertex="1">
          <mxGeometry x="670" y="-90" width="130" height="30" as="geometry" />
        </mxCell>
      </root>
    </mxGraphModel>
  </diagram>
</mxfile>
